<svg id="Layer_1" data-name="Layer 1" xmlns="http://www.w3.org/2000/svg" viewBox="0 0 149.53 150"><defs><style>.cls-1{fill:#30323d;}</style></defs><path class="cls-1" d="M395.1,461.87l-8.64-1.8c-3.91-.82-7.82-1.67-11.74-2.44a1.73,1.73,0,0,1-1.64-1.55,4.37,4.37,0,0,0-1.25-2.48,3.21,3.21,0,0,1-.88-3.36c1.32-7.73,2.55-15.47,3.78-23.21a1.6,1.6,0,0,1,1.38-1.46,5.35,5.35,0,0,0,2.82-1.57,1.88,1.88,0,0,1,2.48-.42q16.5,7,33,14l2.16.91c1.61.7,1.66.88.53,2.31a24.81,24.81,0,0,1-1.87,2.1q-9,9-18,18A2.26,2.26,0,0,1,395.1,461.87Z" transform="translate(-269.02 -360.94)"/><path class="cls-1" d="M312.67,438.06c-2.14.75-3.15-.53-4.23-2.13q-8.15-12.09-16.47-24.06a1.6,1.6,0,0,1,.18-2.49q7.83-7.71,15.55-15.55a1.9,1.9,0,0,1,2.45-.47q9.74,4.2,19.53,8.27a2,2,0,0,1,1.47,2.34,6.33,6.33,0,0,0,1.41,5c.74.87.54,1.5,0,2.34q-6.07,9.35-12.1,18.73c-1.32,2.05-2.73,4.06-3.95,6.17C315.61,437.73,314.63,438.8,312.67,438.06Z" transform="translate(-269.02 -360.94)"/><path class="cls-1" d="M364.11,464.41c-.73,4.54-1.41,8.79-2.11,13-1.1,6.66-2.32,13.3-3.23,20-.32,2.33-1.65,3.71-3.17,5.12-.87.8-1.17-.1-1.52-.6q-4.18-6-8.35-12.05-12.54-18.15-25.09-36.31c-.42-.61-1.12-1.16-.54-2.07s1.37-.52,2.09-.37l36.47,7.5A2,2,0,0,1,360.4,460a6.53,6.53,0,0,0,2.88,3.38C363.8,463.66,364.26,464,364.11,464.41Z" transform="translate(-269.02 -360.94)"/><path class="cls-1" d="M343.78,510.94a7.07,7.07,0,0,1-4.21-1.42,41.81,41.81,0,0,1-3.14-2.8Q318.7,489,301,471.34a1.89,1.89,0,0,1-.26-2.89c2.55-3.8,5-7.66,7.43-11.54a2.2,2.2,0,0,1,2.81-1.22,5.58,5.58,0,0,0,3.54-.15c1.42-.55,2.25-.07,3.08,1.15,5.47,8,11,16,16.52,24s11.07,16.12,16.67,24.14c.82,1.18.8,1.88-.29,2.85C348.53,509.46,346.58,511,343.78,510.94Z" transform="translate(-269.02 -360.94)"/><path class="cls-1" d="M344,361a7.45,7.45,0,0,1,4.74,1.71c3,2.54,5.66,5.51,8.51,8.25a1.24,1.24,0,0,1,.1,1.8q-7.59,11.73-15.14,23.46a1.54,1.54,0,0,1-1.86.75,7.23,7.23,0,0,0-5.81,1.06,2.12,2.12,0,0,1-2.18.16q-9.4-4-18.82-8c-1.07-.45-1.23-.88-.36-1.75q12.39-12.32,24.76-24.68A8.18,8.18,0,0,1,344,361Z" transform="translate(-269.02 -360.94)"/><path class="cls-1" d="M370.55,425.94c-.66,4.12-1.34,8.33-2,12.52-.58,3.54-1.19,7.07-1.72,10.61-.19,1.26-.59,2.1-2,2.31a4.67,4.67,0,0,0-3.18,2.09,2.33,2.33,0,0,1-2.82.91c-8.08-1.69-16.16-3.35-24.25-5-3.81-.79-7.61-1.63-11.44-2.35a1.9,1.9,0,0,1-1.63-1.78c-.22-1.06.67-1.16,1.29-1.43q22.65-9.68,45.31-19.32C369.77,423.75,370.61,424.25,370.55,425.94Z" transform="translate(-269.02 -360.94)"/><path class="cls-1" d="M376.18,390.44c-.7,4.33-1.34,8.38-2,12.43-.46,2.87-.93,5.74-1.43,8.6a3.2,3.2,0,0,1-3.82,2.16q-10.77-4.53-21.52-9.13a1.54,1.54,0,0,1-1.08-1.39.73.73,0,0,0-.06-.3c-1.8-2.58-.33-4.54,1.08-6.67,4.36-6.59,8.61-13.25,12.86-19.91.68-1.07,1.13-1.23,2.07-.27,4.3,4.38,8.66,8.69,13,13C375.75,389.47,376.29,389.93,376.18,390.44Z" transform="translate(-269.02 -360.94)"/><path class="cls-1" d="M367.43,418.82c.19,1.12-.58,1.51-1.45,1.88L330,436c-3,1.28-6,2.57-9,3.83-.46.2-1,.7-1.43.29s.15-1,.43-1.48c5.15-8,10.36-16,15.46-24,1-1.64,2-2.76,4.22-2.65a6.1,6.1,0,0,0,4.95-2.6,1.65,1.65,0,0,1,2.28-.5c6.5,2.79,13,5.53,19.52,8.27C367.11,417.51,367.69,417.87,367.43,418.82Z" transform="translate(-269.02 -360.94)"/><path class="cls-1" d="M303.53,442.91,297,441.58,270.66,436c-1.75-.37-1.88-.59-1.4-2.31a9.1,9.1,0,0,1,2.53-3.88c5-5,10-10,14.94-15,.88-.9,1.36-.73,2,.23q8.36,12.13,16.75,24.23c.34.5.86,1,.29,1.66S304.87,442.88,303.53,442.91Z" transform="translate(-269.02 -360.94)"/><path class="cls-1" d="M364,493.66c.42-2.69.81-5.33,1.24-8,1.09-6.7,2.22-13.41,3.28-20.12a3.87,3.87,0,0,1,1.3-2.14c1.86-2,3.9-1.69,6.23-1.15,4.75,1.11,9.55,2,14.33,3,.54.11,1.3.05,1.5.62s-.5,1-.88,1.35q-12.78,12.8-25.58,25.58C365,493.13,364.77,493.65,364,493.66Z" transform="translate(-269.02 -360.94)"/><path class="cls-1" d="M418.54,433.59c0,.64-.24.82-.76.62-.78-.29-1.54-.62-2.31-.94L384.16,420a2.94,2.94,0,0,1-.57-.26c-.49-.33-1.44-.25-1.38-1s.92-.75,1.46-1c2.91-1.25,5.84-2.48,8.76-3.71,1.44-.61,2.9-1.16,4.31-1.82a1.69,1.69,0,0,1,2.2.39c5.67,5.73,11.39,11.42,17.06,17.14A9.15,9.15,0,0,1,418.54,433.59Z" transform="translate(-269.02 -360.94)"/><path class="cls-1" d="M270.86,440.59c3.93.8,7.47,1.51,11,2.25l18.88,3.93c.55.11,1.35.06,1.46.64s-.71.78-1.2,1c-4.95,2.12-9.93,4.22-14.89,6.33-.66.28-1.26.44-1.85-.16q-6.47-6.52-12.94-13.05A4.35,4.35,0,0,1,270.86,440.59Z" transform="translate(-269.02 -360.94)"/><path class="cls-1" d="M377.09,412.13c.83-5.11,1.64-10.23,2.52-15.33.14-.82-.18-2.08.76-2.34.74-.21,1.27.91,1.84,1.48,3.76,3.73,7.47,7.5,11.25,11.21.94.92,1,1.39-.32,1.92-4.22,1.74-8.4,3.57-12.61,5.34C379.22,415,377,413.47,377.09,412.13Z" transform="translate(-269.02 -360.94)"/><path class="cls-1" d="M304.28,451.71c.77.17,1.27.58,1.07,1.49a2.17,2.17,0,0,1-.36.69c-2.5,3.89-5,7.76-7.49,11.67-.62,1-1.13,1.18-2,.27-2.05-2.14-4.16-4.22-6.27-6.29-.69-.68-.81-1.13.22-1.56q7.11-3,14.2-6C303.82,451.86,304,451.8,304.28,451.71Z" transform="translate(-269.02 -360.94)"/></svg>