<svg id="Layer_1" data-name="Layer 1" xmlns="http://www.w3.org/2000/svg" viewBox="0 0 268.67 150"><defs><style>.cls-1{fill:#30323d;}</style></defs><path class="cls-1" d="M235.23,402.17v75.08h51v-3.93H239.89V440.18H283v-4h-43V406h45.87v-3.87Zm87.49,36.49,50.87-73.35-.58-.43q-26.77,35-53.57,69.94c-.29-.39-.7-.91-1.09-1.44l-21.65-30c-.35-.48-.81-1.16-1.27-1.21-1.56-.15-3.14-.06-5-.06.57.83.92,1.34,1.28,1.84,8,11,15.92,22.11,23.95,33.11a2.21,2.21,0,0,1,0,3.16q-13,17.58-25.85,35.27c-.41.55-.79,1.12-1.32,1.9a22.64,22.64,0,0,1,2.9,0c1.8.24,2.91-.46,4-2,7.62-10.61,15.35-21.14,23.05-31.7.35-.48.72-.94,1.16-1.53.47.62.82,1.05,1.14,1.49q11.76,16.2,23.54,32.38c.34.48.8,1.18,1.26,1.22,1.63.15,3.27.06,5.23.06Zm-69.41,76.22c-.32-.5-.63-1-1-1.51q-19.69-29.31-39.41-58.61-17.2-25.61-34.44-51.21c-.38-.56-.94-1.34-1.48-1.4a49.1,49.1,0,0,0-5.15-.06v75.15h4.62V408.41l.43-.13C201.92,444.16,225.77,480.87,253.31,514.88ZM410.49,402.17H353v4h26.39v71.16H384V406.07h26.5Zm17.6,65.55a6.29,6.29,0,0,0,.13.89c.89,2.85,4,4.26,7.8,3.53,2.82-.55,4.42-2.19,4.51-4.62s-1.07-3.74-4-4.6a42.58,42.58,0,0,1-4.17-1.25,1.88,1.88,0,0,1-.59-3.26c1.33-1.28,4.53-1.22,5.44.36.8,1.38,1.74,1.27,3.31,1a13.86,13.86,0,0,0-1.48-2.64c-2.08-2.33-6.76-2.48-9-.34a4.76,4.76,0,0,0-1.2,1.78,4,4,0,0,0,2.46,5.47c1.66.64,3.45.95,5.12,1.58s2.11,2.26,1,3.44c-1.45,1.49-5.14,1.4-6.2-.38C430.27,467.31,429.29,467.57,428.09,467.72Zm-13.17.07c-.08,2.57,1.45,4.2,4.15,4.52,2.87.33,5.33-1.19,5.49-3.91.24-4.17.06-8.35.06-12.62h-2.41v2c0,3.25,0,6.49-.07,9.73a2.21,2.21,0,0,1-2,2.36,2.41,2.41,0,0,1-2.86-1.5c-.1-.24-.22-.47-.29-.62Zm-5.18,4.54.77,0c.42-.65,1.22-1.33,1.18-1.94a2.27,2.27,0,0,0-1.52-1.55,1.33,1.33,0,0,0-1.6,1.61C408.68,471.14,409.33,471.71,409.74,472.33Z" transform="translate(-171.86 -364.88)"/><path d="M235.23,402.17h50.55V406H239.91v30.17h43v4H239.89v33.14h46.35v3.93h-51Z" transform="translate(-171.86 -364.88)"/><path d="M322.72,438.66l28.1,38.7c-2,0-3.6.09-5.23-.06-.46,0-.92-.74-1.26-1.22q-11.79-16.17-23.54-32.38c-.32-.44-.67-.87-1.14-1.49-.44.59-.81,1.05-1.16,1.53-7.7,10.56-15.43,21.09-23.05,31.7-1.08,1.5-2.19,2.2-4,2a22.64,22.64,0,0,0-2.9,0c.53-.78.91-1.35,1.32-1.9q12.9-17.66,25.85-35.27a2.21,2.21,0,0,0,0-3.16c-8-11-16-22.07-23.95-33.11-.36-.5-.71-1-1.28-1.84,1.83,0,3.41-.09,5,.06.46,0,.92.73,1.27,1.21l21.65,30c.39.53.8,1.05,1.09,1.44q26.82-35,53.57-69.94l.58.43Z" transform="translate(-171.86 -364.88)"/><path d="M253.31,514.88c-27.54-34-51.39-70.72-76.4-106.6l-.43.13v68.83h-4.62V402.09a49.1,49.1,0,0,1,5.15.06c.54.06,1.1.84,1.48,1.4q17.23,25.59,34.44,51.21,19.71,29.3,39.41,58.61C252.68,513.86,253,514.38,253.31,514.88Z" transform="translate(-171.86 -364.88)"/><path d="M410.49,402.17v3.9H384v71.22h-4.61V406.13H353v-4Z" transform="translate(-171.86 -364.88)"/><path d="M428.09,467.72c1.2-.15,2.18-.41,3,1,1.06,1.78,4.75,1.87,6.2.38,1.15-1.18.77-2.79-1-3.44s-3.46-.94-5.12-1.58a4,4,0,0,1-2.46-5.47,4.76,4.76,0,0,1,1.2-1.78c2.29-2.14,7-2,9,.34a13.86,13.86,0,0,1,1.48,2.64c-1.57.25-2.51.36-3.31-1-.91-1.58-4.11-1.64-5.44-.36a1.88,1.88,0,0,0,.59,3.26,42.58,42.58,0,0,0,4.17,1.25c2.95.86,4.1,2.18,4,4.6s-1.69,4.07-4.51,4.62c-3.78.73-6.91-.68-7.8-3.53A6.29,6.29,0,0,1,428.09,467.72Z" transform="translate(-171.86 -364.88)"/><path d="M414.92,467.79H417c.07.15.19.38.29.62a2.41,2.41,0,0,0,2.86,1.5,2.21,2.21,0,0,0,2-2.36c.06-3.24.05-6.48.07-9.73v-2h2.41c0,4.27.18,8.45-.06,12.62-.16,2.72-2.62,4.24-5.49,3.91C416.37,472,414.84,470.36,414.92,467.79Z" transform="translate(-171.86 -364.88)"/><path d="M409.74,472.33c-.41-.62-1.06-1.19-1.17-1.85a1.33,1.33,0,0,1,1.6-1.61,2.27,2.27,0,0,1,1.52,1.55c0,.61-.76,1.29-1.18,1.94Z" transform="translate(-171.86 -364.88)"/></svg>