<svg id="Layer_1" data-name="Layer 1" xmlns="http://www.w3.org/2000/svg" viewBox="0 0 168.51 150"><defs><style>.cls-1{fill:#30323d;}</style></defs><path class="cls-1" d="M319.41,573.69a91.75,91.75,0,0,1-2.21,19c-.32,1.52-.35,1.53,1.1,2a90.88,90.88,0,0,1,19.5,8.64c4.61,2.81,8.78,6.14,11.78,10.71,3.68,5.6,3.6,11.27.09,16.9-2.74,4.39-6.68,7.53-11,10.28a85.92,85.92,0,0,1-20.35,9.19c-.94.3-1.26.65-1,1.67a86.15,86.15,0,0,1,2.21,15.31c.34,7,.05,14-2.81,20.64a15.22,15.22,0,0,1-16.19,9.31c-6.54-.78-12.29-3.47-17.77-6.88a84,84,0,0,1-13.5-10.41c-.7-.66-1.2-.8-2,0-6.17,5.58-12.7,10.68-20.3,14.2a30.65,30.65,0,0,1-13.73,3.29c-5.67-.13-9.75-2.8-12.55-7.54-2.49-4.21-3.36-8.91-3.75-13.73-.68-8.2.43-16.23,2.13-24.22.22-1-.24-1.33-1.06-1.59a97.24,97.24,0,0,1-15.69-6.4A52,52,0,0,1,190.6,636a21.76,21.76,0,0,1-5.77-8.15c-2-5.28-1-10.15,2.29-14.62,3.43-4.69,8-8.05,13-10.89a87.8,87.8,0,0,1,18-7.62,1,1,0,0,0,.83-1.4,92.37,92.37,0,0,1-2.13-13.61c-.59-7.18-.48-14.33,2.12-21.18,2.14-5.64,5.83-9.71,12.11-10.61A23.56,23.56,0,0,1,241.5,549c6.69,2.11,12.5,5.77,18.06,9.91a79.29,79.29,0,0,1,7.19,6c1.15,1.1,1.22,1.06,2.37,0,6.05-5.44,12.44-10.4,19.84-13.9,4.25-2,8.66-3.52,13.46-3.48,6,.05,10.42,2.82,13.31,8a32.21,32.21,0,0,1,3.46,12.79A52.07,52.07,0,0,1,319.41,573.69ZM268.21,595c-4.78.05-9.55.25-14.32.64a2.71,2.71,0,0,0-2.26,1.33,194.92,194.92,0,0,0-14.14,24.71,2,2,0,0,0,0,1.91c1.56,3.43,3.36,6.74,5.16,10,2.85,5.2,6,10.19,9.36,15.08a1.81,1.81,0,0,0,1.37.86c4.05.42,8.12.5,12.18.63,5.76.18,11.51-.25,17.26-.63a1.75,1.75,0,0,0,1.41-1,189.13,189.13,0,0,0,14.44-25.18,1.88,1.88,0,0,0,0-1.81,192.22,192.22,0,0,0-14.48-25,1.91,1.91,0,0,0-1.55-.93C277.84,595.28,273,595.07,268.21,595ZM224.1,672.16a27,27,0,0,0,.29,4.23,26.62,26.62,0,0,0,1.56,7.39c1.13,2.92,2.58,5.61,6.12,6.18a12.8,12.8,0,0,0,4.05,0,34.75,34.75,0,0,0,12.11-4.85,88,88,0,0,0,13.16-9.91c1.23-1.1,1.61-1.15,0-2.77-1.19-1.21-2.33-2.47-3.44-3.74q-4.8-5.51-9.11-11.38a1.64,1.64,0,0,0-1.2-.73,158.58,158.58,0,0,1-19.83-3.39c-1.06-.26-1.46.07-1.67,1.11A94.84,94.84,0,0,0,224.1,672.16ZM312,573.25a26.46,26.46,0,0,0-.26-4.63,24.83,24.83,0,0,0-2.54-9.43,7.19,7.19,0,0,0-5.63-4,17,17,0,0,0-7.74,1.15,49.9,49.9,0,0,0-12.67,6.88,107.19,107.19,0,0,0-8.94,7.25c-.63.56-.72,1-.08,1.66a149.81,149.81,0,0,1,12.79,15.34,2.85,2.85,0,0,0,2.15,1.25,158.62,158.62,0,0,1,19.37,3.3c.89.21,1.33,0,1.51-1A90.64,90.64,0,0,0,312,573.25Zm32.81,49.28a7,7,0,0,0-1.21-3.93,25.42,25.42,0,0,0-7.17-7.11,72.75,72.75,0,0,0-19.86-9.38c-1.49-.48-1.53-.5-2,1a156,156,0,0,1-6.36,17.4,4,4,0,0,0-.22,3.63,138.15,138.15,0,0,1,6.74,18.22c.27.95.64,1.19,1.6.87a80.86,80.86,0,0,0,18-8.11c3.48-2.21,6.8-4.63,9.05-8.2A7.78,7.78,0,0,0,344.79,622.53Zm-116.12.13a7.34,7.34,0,0,0-.28-.8,159.11,159.11,0,0,1-7.08-19.18c-.21-.71-.5-1-1.29-.73-7.27,2.37-14.31,5.23-20.57,9.71a23.33,23.33,0,0,0-7.12,7.31,6.86,6.86,0,0,0-.18,6.91,19.43,19.43,0,0,0,5.55,6.31c6.65,5.24,14.33,8.4,22.26,11.07.85.28,1.22,0,1.46-.8a161.4,161.4,0,0,1,6.91-18.88C228.46,623.27,228.57,623,228.67,622.66Zm83.52,48.58c-.06-.64-.19-1.5-.21-2.36A79.14,79.14,0,0,0,310,654c-.19-.86-.54-1.12-1.41-.91a160.14,160.14,0,0,1-19.69,3.4,2.46,2.46,0,0,0-1.84,1.09,160.36,160.36,0,0,1-13,15.65c-.48.5-.47.83.06,1.28a109.48,109.48,0,0,0,9.24,7.42c4.94,3.43,10.08,6.52,16.09,7.7,2.53.49,5.09.69,7.41-.88a9.54,9.54,0,0,0,3.24-4.66C311.81,680.06,311.89,675.75,312.19,671.24Zm-88.06-97.58a72.33,72.33,0,0,0,2,17.2c.32,1.48.34,1.47,1.8,1.12A144.53,144.53,0,0,1,247,588.72a2.74,2.74,0,0,0,2.07-1.2A139.6,139.6,0,0,1,262,572.08c.58-.59.48-.92-.08-1.44A81.08,81.08,0,0,0,248,560.17a34.79,34.79,0,0,0-12.47-4.86c-4.52-.7-7.71,1.08-9.42,5.33A31.78,31.78,0,0,0,224.13,573.66Zm52.27,14.09c.32,0,.75.2.91-.2s-.23-.52-.41-.75c-2.56-3.26-5.35-6.32-8.1-9.41-.58-.65-1-.59-1.56,0a114,114,0,0,0-7.76,9c-.29.36-.9.76-.67,1.2s.94.12,1.44.11c.23,0,.45,0,.68,0C266.09,587.63,271.25,587.5,276.4,587.75Zm.9,70.19c0-.57-.45-.44-.76-.46-1.77-.12-3.53.17-5.3.22-3.85.12-7.69-.17-11.53-.22-.28,0-.67-.13-.82.19s.18.55.36.77c2.55,3.21,5.23,6.33,8.05,9.31.64.69,1.08.71,1.71,0,2.74-3,5.45-6.13,8-9.37C277.11,658.24,277.21,658.07,277.3,657.94Zm-48.79-57.65c.05.23.1.49.17.74,1.21,3.8,2.45,7.59,4,11.29.12.29.09.77.54.75s.39-.43.52-.69c1.22-2.54,2.63-5,4.06-7.43s2.8-4.64,4.19-7c.17-.27.52-.56.29-.9s-.56-.08-.85,0c-1,.15-2,.29-3,.48q-4.42.87-8.85,1.78C229,599.41,228.45,599.51,228.51,600.29Zm65.95,47.91a1.66,1.66,0,0,0,.22,0c4.12-.68,8.23-1.44,12.3-2.4.85-.2.73-.64.55-1.24q-1.77-5.89-4-11.62c-.11-.27-.12-.68-.46-.72s-.48.42-.64.7c-1.5,2.69-2.95,5.41-4.49,8.08-1.2,2.09-2.49,4.12-3.74,6.18-.15.25-.38.5-.29.82S294.24,648.19,294.46,648.2Zm-53.08,0c.93,0,1.06-.18.7-.8-.56-.94-1.16-1.85-1.73-2.78-2.35-3.85-4.69-7.72-6.69-11.77-.13-.26-.19-.64-.57-.61-.12,0-.26.26-.33.42-1.52,4-3,8-4.13,12.06-.19.67,0,1,.7,1.1,1.14.22,2.27.54,3.41.76C235.7,647.15,238.66,647.69,241.38,648.19Zm53-51.21c-.18,0-.45-.11-.54.19s.11.5.25.71c3,4.65,5.75,9.46,8.36,14.34.13.25.19.66.55.64s.41-.41.51-.68c1.29-3.42,2.55-6.85,3.56-10.36.64-2.2.62-2.21-1.55-2.74C301.82,598.19,298.11,597.58,294.35,597Z" transform="translate(-183.81 -547.56)"/><path class="cls-1" d="M268,607.05c8.26-.38,15.72,6.93,15.66,15.49a15.63,15.63,0,1,1-31.26,0C252.41,614.07,259.66,606.76,268,607.05Z" transform="translate(-183.81 -547.56)"/></svg>