<svg id="Layer_1" data-name="Layer 1" xmlns="http://www.w3.org/2000/svg" viewBox="0 0 150 150"><defs><style>.cls-1{fill:#30323d;}</style></defs><path class="cls-1" d="M285.66,266.21a1,1,0,0,0,.29.08,11.38,11.38,0,0,1,4.31,1.3,14.38,14.38,0,0,1,4.44,3.63,3.65,3.65,0,0,1,.24.31,1.7,1.7,0,0,1-.31.45l-3.74,4.71-8.44,10.62-5.73,7.2-5.89,7.41-8.19,10.3-11.38,14.3c-.55.7-1.11,1.38-1.65,2.09a19.52,19.52,0,0,0-3.5,7.76,22.67,22.67,0,0,0-.51,5.64,21.92,21.92,0,0,0,1.13,6.27,18.45,18.45,0,0,0,4.11,6.94,13.73,13.73,0,0,0,4.64,3.22,11.83,11.83,0,0,0,2.42.74,11.7,11.7,0,0,0,3.64.1,12.22,12.22,0,0,0,4.94-1.8,14.38,14.38,0,0,0,3.59-3.19c1.1-1.36,2.19-2.74,3.29-4.12q3.61-4.56,7.25-9.11l7-8.78,7.11-8.93,8.5-10.68L313,300.31c1.06-1.35,2.13-2.68,3.2-4a7.45,7.45,0,0,1,2.49-2.12,5.74,5.74,0,0,1,6,.34,8.93,8.93,0,0,1,3.86,6.74,10.7,10.7,0,0,1-1.14,6.44,9.32,9.32,0,0,1-1,1.55q-4,5.07-8.06,10.13l-7.62,9.6-6.54,8.22-5.62,7.07-7.65,9.62-6.38,8c-1.43,1.8-2.85,3.61-4.29,5.39a30,30,0,0,1-6.51,6,25.68,25.68,0,0,1-4.76,2.54,23.47,23.47,0,0,1-3.79,1.2,21.88,21.88,0,0,1-4.77.55,22.85,22.85,0,0,1-8.41-1.42,25.23,25.23,0,0,1-4.57-2.2,28.78,28.78,0,0,1-5.11-4,33.26,33.26,0,0,1-4-4.76A39.27,39.27,0,0,1,234,357a43.12,43.12,0,0,1-2.25-8.29,47,47,0,0,1-.58-5.45c0-.59-.1-1.18-.15-1.77v-.67c.05-.48.1-1,.14-1.43.06-.77.1-1.54.16-2.31a40.15,40.15,0,0,1,.82-5.49A43.06,43.06,0,0,1,234,325.3a37.1,37.1,0,0,1,5.54-9.78c1-1.32,2.08-2.62,3.12-3.93L253.48,298l8.93-11.23L271,276l3.5-4.41a16.12,16.12,0,0,1,1.78-1.9,13.3,13.3,0,0,1,3.34-2.26,11.45,11.45,0,0,1,3.87-1.09,2,2,0,0,0,.33-.09Z" transform="translate(-231 -266.21)"/><path class="cls-1" d="M381,343.65c0,.17-.06.34-.07.51a32.7,32.7,0,0,1-.37,3.69c-.19,1.33-.45,2.64-.76,3.93a39.34,39.34,0,0,1-1.61,5.21,38.7,38.7,0,0,1-2.67,5.62,36.21,36.21,0,0,1-3,4.4c-1.76,2.21-3.52,4.44-5.29,6.65l-7.52,9.45-6.56,8.27-7.9,9.92L339,409.12c-.67.83-1.32,1.67-2,2.46a13.77,13.77,0,0,1-5,3.64,11.71,11.71,0,0,1-3.68.92,12,12,0,0,1-2.87-.12,12.48,12.48,0,0,1-4.66-1.83,14.9,14.9,0,0,1-3.49-3.13l-.12-.17c0-.18.11-.25.19-.35l2.76-3.48,7-8.81,8.41-10.58L344.07,377l8.74-11,9.47-11.92a18.51,18.51,0,0,0,2.91-5.17,21.26,21.26,0,0,0,1.17-4.73,22.82,22.82,0,0,0,.2-3.51,22.08,22.08,0,0,0-.19-2.44,20.71,20.71,0,0,0-.72-3.45A18.94,18.94,0,0,0,363.5,330a15.25,15.25,0,0,0-5.79-5.57,12.08,12.08,0,0,0-3.8-1.27,10.86,10.86,0,0,0-3.22-.06,12.83,12.83,0,0,0-7.14,3.44,16,16,0,0,0-1.71,1.86L336,335.81l-5.54,7L324.63,350,319,357.1l-5.76,7.24-6.62,8.32q-3.72,4.68-7.43,9.35-1.69,2.14-3.4,4.26a6.93,6.93,0,0,1-3.15,2.3c-2.82,1-5.84-.28-7.62-3.17a10.66,10.66,0,0,1-1.4-7.41,9.66,9.66,0,0,1,1.93-4.57q1.47-1.87,3-3.73l5.75-7.23,7.49-9.42,8.41-10.58,6.63-8.33,7.51-9.46,5.7-7.16c.87-1.09,1.73-2.2,2.63-3.24a28.68,28.68,0,0,1,6.87-5.85,24.91,24.91,0,0,1,5-2.36,25.23,25.23,0,0,1,3.49-.91,23.45,23.45,0,0,1,6-.28,22.2,22.2,0,0,1,3.69.61,24.85,24.85,0,0,1,4.1,1.41,26.14,26.14,0,0,1,5.39,3.22A31.44,31.44,0,0,1,373,316a37.22,37.22,0,0,1,5,9,43.53,43.53,0,0,1,2.87,12.44c0,.26,0,.52,0,.77s.05.38.07.56Z" transform="translate(-231 -266.21)"/><path class="cls-1" d="M323,266.21a.53.53,0,0,0,.36.09,18.25,18.25,0,0,1,2.94.41,24,24,0,0,1,4.2,1.31,26.44,26.44,0,0,1,4.27,2.25,28.32,28.32,0,0,1,5.25,4.42c.62.67,1.23,1.36,1.82,2.08a9.54,9.54,0,0,1,2,4.28,11.15,11.15,0,0,1,.13,3.69,9.81,9.81,0,0,1-2.24,5.26,6.44,6.44,0,0,1-4,2.34,6.24,6.24,0,0,1-5.82-2.41,24.8,24.8,0,0,0-1.83-2,13.57,13.57,0,0,0-4.44-2.78,11.72,11.72,0,0,0-5.2-.69,12.09,12.09,0,0,0-5.26,1.79,15.25,15.25,0,0,0-4,3.66l-6.18,7.78-5.68,7.13-6,7.5-5.64,7.1-8.19,10.31-5.95,7.47-5.4,6.79-2.76,3.49a7.87,7.87,0,0,1-2.38,2.07,6.61,6.61,0,0,1-2,.67,5.74,5.74,0,0,1-2.47-.17,7,7,0,0,1-3.84-2.93,9.72,9.72,0,0,1-1.64-4.35,10.61,10.61,0,0,1,1.49-7.29c.4-.62.87-1.18,1.32-1.75l8.28-10.4q3.3-4.17,6.62-8.33,4.2-5.29,8.41-10.58,3.78-4.77,7.57-9.52l5.7-7.17,6.59-8.29c.75-.95,1.5-1.9,2.26-2.83a29.86,29.86,0,0,1,7.57-6.74,25.23,25.23,0,0,1,6.43-2.82,26.12,26.12,0,0,1,3.79-.73l.69,0a1.83,1.83,0,0,0,.25-.08Z" transform="translate(-231 -266.21)"/><path class="cls-1" d="M290.73,416.21A24.18,24.18,0,0,1,280.8,414a27.41,27.41,0,0,1-7.51-5.15,29,29,0,0,1-3.06-3.36,9.81,9.81,0,0,1-2-4.72c-.58-4,1-8,3.94-9.84a6.13,6.13,0,0,1,8.15,1.57,24.61,24.61,0,0,0,1.68,1.84,14.28,14.28,0,0,0,2.73,2,12.58,12.58,0,0,0,2.65,1.13,11.46,11.46,0,0,0,3.72.47,11.83,11.83,0,0,0,4.9-1.26,13.85,13.85,0,0,0,3.91-2.9c.55-.57,1-1.2,1.54-1.82q4.31-5.42,8.6-10.82l6.38-8,8.47-10.65,7.84-9.86,5.75-7.24q3.11-3.9,6.22-7.81l2.17-2.73a6.77,6.77,0,0,1,4.05-2.64c2.92-.58,5.77,1.07,7.32,4.24a10.75,10.75,0,0,1,1,5.69,10,10,0,0,1-2.11,5.54l-2.93,3.68-6.92,8.71-7.28,9.14-5.75,7.24c-2.29,2.87-4.57,5.76-6.86,8.63q-3.61,4.55-7.22,9.08l-5.7,7.16c-1.15,1.45-2.29,2.9-3.45,4.34a30.44,30.44,0,0,1-6.9,6.37,26.12,26.12,0,0,1-4.49,2.37,22.9,22.9,0,0,1-3.49,1.13,19.37,19.37,0,0,1-3.38.55Z" transform="translate(-231 -266.21)"/></svg>