<svg id="Layer_1" data-name="Layer 1" xmlns="http://www.w3.org/2000/svg" viewBox="0 0 137.36 82.64"><defs><style>.cls-1{fill:#30323d;}</style></defs><path class="cls-1" d="M259.7,369.14a21.08,21.08,0,0,1,.71-3.13,34.84,34.84,0,0,1,3.36-8,33.59,33.59,0,0,1,3.6-5.05,29.13,29.13,0,0,1,7.48-6.15A33.11,33.11,0,0,1,285,343a48.8,48.8,0,0,1,5.79-.77,44.11,44.11,0,0,1,5.63-.09,37.73,37.73,0,0,1,15.11,3.63,38.37,38.37,0,0,1,8.61,5.77,44.11,44.11,0,0,1,3.73,3.5c1.34,1.48,2.8,2.86,4.14,4.34a21.71,21.71,0,0,0,13.84,7.19A19.26,19.26,0,0,0,355,363.51a30.31,30.31,0,0,0,7.35-6.85,1.28,1.28,0,0,1,.44-.47,1.54,1.54,0,0,1-.09.83,41.1,41.1,0,0,1-4.85,11.17,35.41,35.41,0,0,1-6.27,7.58,26.23,26.23,0,0,1-7.46,4.84,39.86,39.86,0,0,1-10.53,2.68,42.19,42.19,0,0,1-7.45.23,38.5,38.5,0,0,1-9.68-1.82,41.45,41.45,0,0,1-10.21-4.86,29.45,29.45,0,0,1-4.61-3.72c-1.86-1.82-3.68-3.7-5.55-5.52a44.77,44.77,0,0,0-7.18-5.76,21.09,21.09,0,0,0-7.39-3.07,18.33,18.33,0,0,0-9.37.77,24.59,24.59,0,0,0-10.29,7,16.4,16.4,0,0,0-1.67,2.12C260.08,368.84,260,369,259.7,369.14Z" transform="translate(-225.46 -342.09)"/><path class="cls-1" d="M328.61,397.41a26.81,26.81,0,0,1-1,3.43A41.49,41.49,0,0,1,322.51,411a29.06,29.06,0,0,1-19.36,12.82,43.3,43.3,0,0,1-11.35.85,37.36,37.36,0,0,1-8.7-1.53,41.22,41.22,0,0,1-11.54-5.44,28,28,0,0,1-4.18-3.43c-1.69-1.68-3.37-3.39-5.08-5.06a48.52,48.52,0,0,0-7.09-5.86,21.94,21.94,0,0,0-8-3.42,17.75,17.75,0,0,0-8.32.44,22.71,22.71,0,0,0-8.66,4.75,27.06,27.06,0,0,0-4.35,4.72c-.1.14-.21.26-.32.39s0,0-.07,0c-.15-.18,0-.37,0-.55a36.64,36.64,0,0,1,2.5-7.63,32.74,32.74,0,0,1,4.45-7.2,28.6,28.6,0,0,1,7.7-6.67,34.45,34.45,0,0,1,12.49-4.38,47.85,47.85,0,0,1,9.26-.54,37.82,37.82,0,0,1,17.29,4.63,41.63,41.63,0,0,1,6.67,4.75c1.09.94,2.15,1.92,3.14,3,1.48,1.52,3,3,4.41,4.59a22,22,0,0,0,12.91,7.35,19.09,19.09,0,0,0,12.25-1.68,24.48,24.48,0,0,0,5.91-4.14,40.36,40.36,0,0,0,3.69-4l.28-.33Z" transform="translate(-225.46 -342.09)"/></svg>