<svg id="Layer_1" data-name="Layer 1" xmlns="http://www.w3.org/2000/svg" viewBox="0 0 150 150"><defs><style>.cls-1{fill:#30323d;}</style></defs><path class="cls-1" d="M295.7,300.44c41-.34,75.87,34.16,74.89,76.82-.92,39.9-34.45,74.2-77,73.15-40-1-73.15-34.29-73-75.34S254.66,300.05,295.7,300.44Zm0,3.19a71.77,71.77,0,0,0-1.22,143.53c40.15.6,72.58-31.69,72.83-70.88A71.7,71.7,0,0,0,295.67,303.63Z" transform="translate(-220.61 -300.43)"/><path class="cls-1" d="M256.19,345.33c2.78-.31,5.25-.44,7.64-.93a3.09,3.09,0,0,0,1.91-2,3.78,3.78,0,0,0-1-2.62c-.34-.43-1.31-.51-2-.48-4.19.18-8.38.5-12.58.66-2.68.1-5.37,0-8.11,0,18.69-30.85,65.77-40.33,96.61-12.37-.85.11-1.58.17-2.28.32A11.37,11.37,0,0,0,328,342.58,55.07,55.07,0,0,0,333,353c2.32,4.09,4.47,8.2,5.45,12.85a32.23,32.23,0,0,1-1,16q-4.63,15.6-9.32,31.16c-.08.27-.21.52-.47,1.16l-23.15-68.92,5.4-.49c.66-.07,1.32-.13,2-.24a2.63,2.63,0,0,0,2.37-2.9c0-1.47-1.33-2.45-3-2.39-6,.24-12.1.68-18.16.7-5.09,0-10.19-.35-15.27-.72-2.16-.15-3.23,1-3.42,2.59s.93,2.56,2.86,2.81,4.18.41,6.35.62c2.73,7.46,5.31,15,8.27,22.4a13.35,13.35,0,0,1,.15,10.11c-4.16,11.74-8,23.61-11.9,35.42-.15.45-.33.89-.61,1.64C271.71,391.5,264,368.46,256.19,345.33Z" transform="translate(-220.61 -300.43)"/><path class="cls-1" d="M316.8,436.11c-10.93,4.43-27,5.09-39.33,1q9.54-27.72,19.06-55.42l.39-.06Q306.83,408.82,316.8,436.11Z" transform="translate(-220.61 -300.43)"/><path class="cls-1" d="M267.36,433.23c-32.36-15.7-44.23-54.18-30.58-83.83C247,377.32,257.09,405.07,267.36,433.23Z" transform="translate(-220.61 -300.43)"/><path class="cls-1" d="M352.73,345.9c15,26.34,7.43,66.37-24.59,85,1.27-3.71,2.45-7.2,3.65-10.69,5.16-15,10.4-29.87,15.46-44.86a122.81,122.81,0,0,0,4.6-16.2C352.71,354.65,352.5,349.93,352.73,345.9Z" transform="translate(-220.61 -300.43)"/></svg>